:FULLY-SPECIFIED
:FORCE-ALL-JOINTS-BE-3DOF
:DEGREES
918
root -0.130265 14.1214 -36.2181 12.6181 -27.4465 -16.2609
lfemur -64.2934 31.304 -0.50754
ltibia 69.9106 -0 0
lfoot -6.66931 -9.02266 0.00840716
ltoes -9.68186 0 0
rfemur 5.79568 -8.60013 12.7271
rtibia 38.608 -0 0
rfoot -22.7738 -28.2063 -0.00326348
rtoes -28.3942 0 0
lowerback 11.3296 -0.0138831 6.68954
upperback -1.65069 1.32599 5.67756
thorax -8.1532 0.460421 2.05483
lowerneck -3.79222 7.82348 2.41832
upperneck 4.41736 10.3452 -0.766749
head 2.21572 5.17581 -0.317928
lclavicle 0 0 0
lhumerus 12.2411 -13.2422 70.7408
lradius 25.6366 -0 0
lwrist -24.3637 0 0
lhand -28.4915 30.875 0.00462928
lfingers 0 0 0
lthumb -1.86032 60.7991 0.00506982
rclavicle 0 0 0
rhumerus -76.7336 21.6226 -96.5057
rradius 110.546 -0 0
rwrist -67.8188 0 0
rhand -11.3307 -24.3105 -4.66093e-05
rfingers 0 0 0
rthumb 14.7019 -53.7692 -4.46272e-05
919
root -0.122516 14.1136 -36.2111 12.6028 -27.431 -16.3192
lfemur -64.4434 31.4152 -0.579957
ltibia 70.1577 -0 0
lfoot -6.71407 -9.1248 0.0086608
ltoes -9.28963 0 0
rfemur 5.87705 -8.6363 12.6721
rtibia 38.6016 -0 0
rfoot -22.8007 -28.1403 -0.00336193
rtoes -28.5334 0 0
lowerback 11.2953 -0.0382487 6.73199
upperback -1.63522 1.29915 5.75913
thorax -8.11874 0.447858 2.12335
lowerneck -3.79678 7.83329 2.46552
upperneck 4.50166 10.3578 -0.801785
head 2.24991 5.18198 -0.333401
lclavicle 0 0 0
lhumerus 12.1759 -15.2751 71.0637
lradius 26.329 -0 0
lwrist -22.5338 0 0
lhand -28.1708 30.8829 0.00476902
lfingers 0 0 0
lthumb -1.55066 60.808 0.00522285
rclavicle 0 0 0
rhumerus -76.7357 21.6155 -96.4617
rradius 110.535 -0 0
rwrist -67.7778 0 0
rhand -11.3293 -24.3281 -4.80154e-05
rfingers 0 0 0
rthumb 14.7033 -53.7866 -4.59735e-05
920
root -0.115422 14.106 -36.2047 12.5874 -27.4155 -16.378
lfemur -64.595 31.5272 -0.653437
ltibia 70.407 -0 0
lfoot -6.75921 -9.22784 0.00883583
ltoes -8.89399 0 0
rfemur 5.95918 -8.6727 12.6164
rtibia 38.5951 -0 0
rfoot -22.8278 -28.0738 -0.00342987
rtoes -28.6738 0 0
lowerback 11.2608 -0.0628003 6.77482
upperback -1.61966 1.27205 5.84141
thorax -8.084 0.435145 2.19247
lowerneck -3.80137 7.84319 2.51312
upperneck 4.58669 10.3705 -0.837106
head 2.2844 5.18821 -0.349005
lclavicle 0 0 0
lhumerus 12.0973 -17.3253 71.3952
lradius 27.0275 -0 0
lwrist -20.688 0 0
lhand -27.8474 30.8908 0.00486544
lfingers 0 0 0
lthumb -1.23831 60.817 0.00532845
rclavicle 0 0 0
rhumerus -76.7378 21.6082 -96.4172
rradius 110.524 -0 0
rwrist -67.7365 0 0
rhand -11.3278 -24.3458 -4.89856e-05
rfingers 0 0 0
rthumb 14.7047 -53.8043 -4.69025e-05
921
root -0.108953 14.0986 -36.1991 12.5718 -27.3999 -16.4371
lfemur -64.7478 31.6395 -0.727705
ltibia 70.6575 -0 0
lfoot -6.80457 -9.33136 0.00892992
ltoes -8.49647 0 0
rfemur 6.04174 -8.7092 12.5605
rtibia 38.5886 -0 0
rfoot -22.8551 -28.007 -0.00346639
rtoes -28.8148 0 0
lowerback 11.226 -0.0874422 6.81788
upperback -1.60407 1.2448 5.92406
thorax -8.04912 0.422329 2.2619
lowerneck -3.80598 7.85314 2.56095
upperneck 4.67211 10.3833 -0.872578
head 2.31905 5.19448 -0.36468
lclavicle 0 0 0
lhumerus 12.0046 -19.3847 71.7354
lradius 27.7293 -0 0
lwrist -18.8335 0 0
lhand -27.5224 30.8987 0.00491728
lfingers 0 0 0
lthumb -0.924476 60.826 0.00538522
rclavicle 0 0 0
rhumerus -76.7399 21.601 -96.3725
rradius 110.513 -0 0
rwrist -67.695 0 0
rhand -11.3263 -24.3636 -4.95073e-05
rfingers 0 0 0
rthumb 14.7061 -53.822 -4.74019e-05
922
root -0.103081 14.0914 -36.1941 12.5562 -27.3842 -16.4962
lfemur -64.901 31.7518 -0.802478
ltibia 70.9082 -0 0
lfoot -6.84996 -9.43497 0.00894204
ltoes -8.09862 0 0
rfemur 6.12441 -8.74565 12.5044
rtibia 38.5821 -0 0
rfoot -22.8824 -27.9401 -0.0034711
rtoes -28.956 0 0
lowerback 11.1912 -0.112079 6.86098
upperback -1.5885 1.2175 6.00678
thorax -8.01421 0.40946 2.33138
lowerneck -3.81058 7.8631 2.60882
upperneck 4.75761 10.3962 -0.908062
head 2.35373 5.20077 -0.380364
lclavicle 0 0 0
lhumerus 11.8975 -21.4453 72.0839
lradius 28.4317 -0 0
lwrist -16.9774 0 0
lhand -27.1972 30.9067 0.00492396
lfingers 0 0 0
lthumb -0.610376 60.835 0.00539253
rclavicle 0 0 0
rhumerus -76.7421 21.5937 -96.3278
rradius 110.502 -0 0
rwrist -67.6534 0 0
rhand -11.3249 -24.3814 -4.95744e-05
rfingers 0 0 0
rthumb 14.7075 -53.8397 -4.74662e-05
923
root -0.0977784 14.0846 -36.1897 12.5407 -27.3687 -16.5552
lfemur -65.0541 31.8636 -0.87747
ltibia 71.1581 -0 0
lfoot -6.89522 -9.53827 0.00887239
ltoes -7.70195 0 0
rfemur 6.20688 -8.7819 12.4485
rtibia 38.5756 -0 0
rfoot -22.9096 -27.8734 -0.00344406
rtoes -29.0967 0 0
lowerback 11.1565 -0.136616 6.90397
upperback -1.57302 1.19026 6.08924
thorax -7.97943 0.396588 2.40065
lowerneck -3.81516 7.87304 2.65655
upperneck 4.84284 10.4091 -0.943421
head 2.38831 5.20704 -0.395998
lclavicle 0 0 0
lhumerus 11.7755 -23.499 72.4409
lradius 29.1319 -0 0
lwrist -15.1268 0 0
lhand -26.8729 30.9147 0.00488559
lfingers 0 0 0
lthumb -0.297219 60.844 0.00535051
rclavicle 0 0 0
rhumerus -76.7442 21.5865 -96.2832
rradius 110.491 -0 0
rwrist -67.612 0 0
rhand -11.3234 -24.3992 -4.91884e-05
rfingers 0 0 0
rthumb 14.7089 -53.8574 -4.70966e-05
